# xmcd
#
# Track frame offsets: 
#        150
#        14427
#        32086
#        48984
#        69568
#        86887
#        105806
#        123474
#        141744
#        153016
#        170194
#        188640
#        200851
#        215355
#        231633
#
# Disc length: 3331 seconds
#
# Revision: 0
# Processed by: cddbd v1.5.2PL0 Copyright (c) Steve Scherf et al.
# Submitted via: ExactAudioCopy v1.0b1
#
DISCID=dd0d010f
DTITLE=Année 80 compil  - Année 80 compil CD 2
DYEAR=2010
DGENRE=Country
TTITLE0=Jean-Pierre Mader - Macumba
TTITLE1=Philippe Lavil and Jocelyne Beroard - Kolé séré
TTITLE2=Philippe Lafontaine - Coeur de loup
TTITLE3=Gérard Blanc - Une autre histoire
TTITLE4=Caroline Loeb - C'est de la oaute
TTITLE5=Chagrin d'amour - Chaqun fait (c'qui lui plait)
TTITLE6=Toto Cutugno - L'italiano
TTITLE7=Philippe Cataldo - Les divas du dancing 
TTITLE8=Buzy - Dyslexique
TTITLE9=Anita Ward - Ring my bell
TTITLE10=Irène Cara - Flashdance what a feeling
TTITLE11=Francis Lalanne - On se retrouvera
TTITLE12=Hervé Christiani - Il est libre Max
TTITLE13=Thierry Pastor - Le coup de folie
TTITLE14=Imagination - Just an illusion 
EXTD=
EXTT0=
EXTT1=
EXTT2=
EXTT3=
EXTT4=
EXTT5=
EXTT6=
EXTT7=
EXTT8=
EXTT9=
EXTT10=
EXTT11=
EXTT12=
EXTT13=
EXTT14=
PLAYORDER=
